<svg xmlns="http://www.w3.org/2000/svg" viewBox="0 0 64 64">
  <defs>
    <linearGradient id="g" x1="0" y1="0" x2="1" y2="1">
      <stop offset="0" stop-color="#E7D2AE" />
      <stop offset="1" stop-color="#C5A05C" />
    </linearGradient>
  </defs>
  <rect width="64" height="64" rx="14" fill="#231F1C" />
  <path
    d="M32 46c-1 0-9-5.3-13-11.2C16.4 31 16 28.3 17.4 25.8 18.9 23 22 22 24.6 23.4c1.7.9 2.9 2.4 3.6 3.7.7-1.3 1.9-2.8 3.6-3.7 1.2-.6 2.4-.8 3.6-.6-1.7 1.1-2.8 2.9-2.8 5.1 0 3.9 3.4 6.6 6.9 9.2-2.6 3.5-6 6.9-7.1 8.1A1.6 1.6 0 0 1 32 46Z"
    fill="url(#g)"
    opacity="0.4"
  />
  <path
    d="M40 19c2.7 0 5 2.2 5 5 0 4.6-5.6 8.7-9.6 12.2-.7.6-1.7.6-2.4 0C29 32.7 23.4 28.6 23.4 24c0-2.8 2.2-5 5-5 1.9 0 3.6 1.1 4.4 2.7.8-1.6 2.5-2.7 4.4-2.7Z"
    fill="url(#g)"
  />
</svg>
